<?xml version="1.0" encoding="UTF-8"?>
<svg id="_图层_1" data-name="图层 1" xmlns="http://www.w3.org/2000/svg" viewBox="0 0 597 478">
  <defs>
    <style>
      .cls-1 {
        fill: none;
        fill-rule: evenodd;
      }
    </style>
  </defs>
  <path class="cls-1" d="M457,48c1.33,2.33,1,5,1,5,0,0,0,2.33-1,4s-.67-.33-1,2-1,6-1,6c0,0-.33,2.33,0,4s0,4,0,4c0,0,1.33,2.33,1,4s.67,2,0,4-1,4-1,4l-1,2-2,3"/>
  <path class="cls-1" d="M468,93l2-5,2-4,3-3,3-4s.33-.33,2-3,0-2.67,2-4,3-1,3-1"/>
  <path class="cls-1" d="M452,127l2-2s1.33-2.33,4-2,3-.33,6,0,5,1,5,1c0,0,3.67.33,4-2s1-16,1-16l-3-7v-5h-4s-4,5-5,6-2.67,4.33-5,6-5,4-5,4l-3,2"/>
  <path class="cls-1" d="M483,65l3,7s1.33,2.67,4,4,7,4,7,4c0,0,2.67,2.33,4,2s4,0,4,0l4-3c1.33-2.33,2.33-5.33,3-7s1-2,1-2c1.33,0,2.67,1,4,0s3-2,3-2l2-2s5,2,5,3,1,2,1,3v2s1.67,2.33,3,2,.67-.33,3-1,1.67-1,4-1,3-.33,4,0,.67-.33,3,0,4,0,5,0,2-2,2-2c2,0,4-.33,5,2s.33,2.33,2,5,2,2.67,3,6,1,5,1,5l-4,3s.33,2.33,0,4,0,3,0,3l-1,3,1,3"/>
  <path class="cls-1" d="M437,23s-.67,2.67-1,6-1.67,3.33-1,6,1,2,1,6v7c0,1.67-1,.33,0,2s-.33,1.33,1,2,1,2,1,2l4-1h3l4-4,4-5s2.33-.67,4,1,7,1,7,1c0,1.33,3,1.67,3,4s-.33,1.33,0,3,1,0,2,2,2,1.33,2,3v3c0,1,2.67,1.33,4,1s.33,0,2,1,2,2,2,2l3-2c0-1.33-1-4.33,0-6s-.33-2.33,2-4,.33-1.33,3-3,6-3,6-3l2-2"/>
  <path class="cls-1" d="M433,75v3l3,2,4-2,5,4,4,3s1,0,2,2,.67,1.67,1,3,.67,0,0,2,.33,0-1,3-2,1.33-2,5,.33,2.33,0,5-.67-.67-1,4-1,2.67-1,7-1,2.33,0,6-.67,5,2,6-1.33-.33,4,2,4.67,1.33,6,3,1.67,0,2,2,2.67,1.67,0,4-5,3-5,3"/>
  <path class="cls-1" d="M438,55s-.33,3.67,0,5-.33.67,0,3,1.67,4,0,5-.67.67-2,2l-2,2s-2.33,0-3-1-2-3-2-3l-3-2s-1.67-.33-3-1-1.33-1.33-3-1-5,1-5,1c0,0-3-.33-3,2s-.33,2.67,0,4,0,1.33,1,4,1,4,1,4l2,2,3,1c.67,2.67,2.67,1.67,3,5s-.33,3,0,5,1.33,2,0,4,0,2-2,4-.33-.33-3,3-3,2.67-3,5,.33,1.33,0,4-.67,2.33-1,4"/>
  <path class="cls-1" d="M315,62l4,1,4,2,2-1,3-1s1.67-2.33,3-1,1.67.33,3,3-2,4,2,4h5s3-1.33,4,2,2,2.33,2,6v4l7-2s-1.33,2.67-1,5-.33,3,0,5,0,4,0,4l6-4,3,1v4s-2.33,5.33-1,6,8-3,8-3l2,2s.67,4.33,1,6,.33,1-1,6-2,7-2,7c0,1.33-3,4.33,1,6s4,2,4,2"/>
  <path class="cls-1" d="M266,169l4-5,2-3-6-1v-3s1.33-3,3-4,4.33-2.33,6-2,4,0,4,0c0,0,1,0,3-2l4-4s-.67,0,1-2,3-3,3-3c0,0,3.67-3.67,4-5s.33-2.33,3-2,4-.33,5,2,0,3.33,1,5,1,3.33,4,4,3.33-.33,5,1,0,2.33,2,4,2,1.67,5,2,2.33.33,5,0,3.33-1.33,5,1,1.67,2.33,4,4,3,2.67,6,3,4.33-.33,7,0,2.33,0,5,0,5,1,5,1c.33-2.33,2-5.33,2-7s0-2.33,1-4,2-3,2-3c1.67-1.33,3.33-1.67,4-4s1-3.67,2-5-.33-1,1-2,0-1.67,2-3,2-2,3-3,3-2,3-2c1.33-.67,6-3,6-3l4-2s3-2.33,4-2,1.33-1.67,3,0,3,1.67,4,4,.67,3.33,2,3,3.67-1.33,5-3,2-2.33,5-4,3.33-3.33,5-3,2,5,2,5v4s-.33,2.33,0,4,0,6,0,6c0,0,1,2.67,2,4s3,4,3,4l2,1,3,1,3,1,3-1,4,2h3l4-2,4-3,2-4h3s4.33,1,3,3-3,3-3,3v4s-.67,3-1,4-1,1-1,1l2,3,1,3c.67,2.33.67,2,1,5s.33,3.33,0,5-.33,1.67-2,4-3,3-3,3c0,2,.33,3,0,5s1,1.33,0,3-1.67,2-2,4-1.33,2,0,4,1.33-3.67,2-2,2.67,3.67,1,6-3,4-3,4v3s2-.67,1,2-1,3-1,3c1,3.33,1.67,5,3,7s1,.67,2,3,1.67,1.33,2,3,0,2,0,2"/>
  <path class="cls-1" d="M212,218l5,1,4,4,6-2s-.67-3-1-4-3-4-3-4l-1-2-1-3s.67-1.67,3-3,6-4,6-4h3s3.33.67,3,2,1,2,1,2l3-2s3-2,4-3,.67-1.33,3-1,1,.67,4,1,3-.67,5,0,.33,1.33,4,1,3.33.33,5,0,3,0,3,0v-9s-1,0-1-2-2-3.33-2-5v-2l-1-2v-10l5-1c2,.33,6,2,6,2,0,0,1.33,1,3,1s2-.67,4,0,3.67-1,4,2-.33,3.33,0,5-.33,1,0,4,.67,3.33,2,5,1.33,1,3,2,1.33.67,3,1,3,1,3,1c0,0,1,0,2,3s1.33,2.33,2,4,1,2,1,2l4-2c3.67,1,5-.33,7,1s2,1,4,3,1,2.33,4,5,3.33,3,6,4,4,2.67,5,2-.33-1.33,2-1,1.67-1.67,3,1-.33,2.33,2,5,3.33,1.33,5,4,2,.67,3,4-1.33,2.33,1,3,3,1.33,5-1,1.33-2.33,3-3-2.33-2.67,7-2,9.67,1.33,11,1,2.67.67,5,0-.67-1.67,5,0,5,1.67,8,3,6,1,6,1c0,0,.33,2.67,0,6s-1,2-1,5-.67,2.33-1,5-3.33,1.33-1,4,3.67,3.67,5,5l2,2"/>
  <path class="cls-1" d="M257,290l2-5,1-3v-4l5-4s.67-5,3-1,3,5,3,5h3l2-2,3-1,4,2,2,1,3-2,4,2,3,3,3,2h3l3-2c1.33-.33,5-4,5-4v-3l2-2s1.67-1.33,3-1,1.33-2.33,3,0,2.33,4,4,5,4,2,4,2c0,0,.67,1.67,2,4s.67,3.67,2,5,2,2.33,3,4,3,4,3,5,1,2,1,2h4s4-.33,5,0,4,3,4,3l4,3,3,1c.33,1.67,2,7,2,7l2,2,2-2,1-4s2.67-2.33,4-1l3,3,2,1,2,1"/>
  <path class="cls-1" d="M125,214l5,1,3-2h3l3-3,6-3,3-1,1,4,5-2,3-4h3l1,4s.67,3.33,2,4,2,1,2,1l5-2,4-1,4-2h3s2.67-1.33,3,1,.67,3.67,1,5-2.33,2.67,0,3,2-.33,4,0,4-.33,5,0,.33,1.33,2,2,1,1,3,1,3.67.67,9-1,4,0,4,0l-3,3-4,2-2,3,5,1s1.67-.33,3,0,.67,0,2,1,2.67,2.67,3,4,1,.33,0,2-3,4-3,4c-.33,2-2,1.33-3,5s.33,4-1,6-3.67-.33-2,4,0,4.33,2,5,1.33,1.33,3,1,6-3,7-3h1s1-1.67,3,0-.67,2,2,2,1.33.33,3,0,5-3,5-3l2,3v5l1,4,1,3s5,4,5,6v12c1.33-.67,3-1.67,4-1s4,2,4,2c0,0-3,3,2,2s3.33-2,5-1,3,3,3,3c0,0-2.33,4.67-4,6s-3,4-3,4c0,0-.33.33-1,3s.67,2.67-1,4,1,1.33-3,3-10,5-10,5c0,0,1.33,0,0,4s-2,1.67-2,6-.33,5.67,0,7-.67,1.33,1,2,3.67,1.67,6,1,4-2,4-2c-.33,3,.33,2.33,0,5s.33,2.67-2,5-2.67,2.33-5,4-.67,1.33-4,3-5,2-5,2c0,0-1.67-4-2-2s-.67,2,0,4,.67-6,0,4-1,11-1,11l-6,4c-2.67,1.67-8,3-8,3l-7,6v3l-1,4-3,2s-3.33,0-5,1-3,4-4,5-2,3-2,3c0,0-2.33.33-3,2s-5,3-5,3c0,0,.33-.67-3,2s-6,5-6,5l-2,2s.67-.33-2,1-6.33.33-8,2-8,6-8,6"/>
  <path class="cls-1" d="M121,159l-3,4-2,3h-5l-5,4,3,5,8-3,3,1v4l-3,2-6,3c.33,1.33,1,5,1,5l4,2s2.67,1.67,3,3,.67,2.67,1,5,.33,2.33,1,4,.67,2,1,4,1,5,1,5c0,0-.67,1.33,1,3l2,2v24h-4l-3,3s-4,1-3,3,1,5,1,6,.33,1.67,0,3-3,5-3,5c0,0-3.67,1.67-4,3s-1.33,1.67-2,3-1.67,1.33-3,3-5,4-5,4l-3,3v7l-3,2s-3,3-3,4,.33,2.67,1,4,1,1.33,2,3,0,.67,1,2,1,1.67,1,4,.33,1.33,0,3-.67,1.67-1,3-1.33,1.33-2,3-.33-.33-1,2-1,4-1,4l-2,3h-3s-2,2.67-2,4-3,6-3,6l-3,4-2,3-3,3-3-3-5,2-5,4s-7.67,4.67-8,6-3.33,4.33-4,6-3,6-3,6l-3,4-3,3s-.33,4,0,5,0,3.33,0,5v6l-6,5-4-1h-5l-1,2-4,2h-6l-3,3-2,4-5,3-3,3,2,3,3,3,4,1,2,4,4,1,4,1s1.67.33,2,3,0,6,0,6l4,1,5,2,2,3h3l2,1,3,1,4-2h3l5-1c.67,1.33,4,4,4,4l3,2,3,1,2-2h4l3,1s2.33-2.33,3,0,3,6,3,6l3,3,3,1v3l2,2,1,3-5-2c.33,2.67,0,7,0,7,0,0,2,3,2,4s1,4,1,4c0,0,4,1,4,3s3,3,3,3l-1,4h4s2.67-1.67,4-2,5-2,5-2l4,2,5,2,4-3,2-4,2-2,4-1,2-2v-3l-2-4v-3h4l2-3,2-5,4-3h3l1-4,4-2,2-4,1-3,2-2,2-2,3,1s.67-2.67,3-2,3.33,1.67,5,3,5,3,5,3l3,1,5,2-2,3,2,3,2,2s2,1.67,3,2,3,1,3,1c0,0-1,3,0,4s0,1.33,1,3,1,4,1,4l2,2,2,1h3l3-3,4-2s1.67-.67,3-1,1,.33,3,0,4-1,4-1l3-1s2.67-1.67,4-2,4-1,4-1l3-2,2,3h5c1.33,1.33,5,2,5,2h4l1-3,2-2h3v-7s-.33-2.33-2-3-2-1-2-1l-3-1,1-3v-3l2-3s-.33-1.67,2-1,4,3,4,3c.67,1.33-.33,1.67,1,4s3,4,3,4c1.33.67,3.33,1.67,5,2s1.33-.33,3,0,3-2,3-2l1-3v-6c1.33.33,4,0,4,0,1.67-1.33,2-2.33,5-3s4-1,4-1v-4l-2-4,2-2c.33-1.33,1-4,1-4v-3s-2-2.67-3-3-2.33.67-2-1-1,1,0-3c1-4,2-5,2-5-2.33-1.67-5-5-5-5l3-3,5-4,3-5,3-1,3,3,1,3h7v-4l3-1s-.33,2.33,1,3,2,1.67,3,2,2.67,1,4,3,3,2,3,4-2,1-2,1v3l2,4,3,3c1,1,3,2,3,2h3l3-4,1-4,1-3,2-2s1.33-1,3,0,4,2,4,2v-3l2-2h4l2-3,3,1,3,2,3-2-2-2-3-4,2-4,1-3,3-2-1-3,2-3,4,3h3s4.71-.88,5.47,1.4c.26.78.53,1.6.53,1.6v-5l2-1,3-1,3-5-1-3-1-3-3-2s.24-1.93.49-3.9c.54-4.33,2.51-2.1,2.51-2.1v-4l1-3s-.5-.17-1.1-.37c-.86-.29-1.9-.63-1.9-.63l4-3-4-2v-5l4-3,4-1h3l-3-3v-3c1.33-.33,3-2,3-2l-1-2-2-3v-3h3l2-2-1-2-2-2-2-2,1-2,3-4,2-1,3-3,3-3,5-3,5,1h3c1,0,.33.67,2,0s3-1,3-1l3,1,4,1,4-2,4-4h3l3,1,3-3v-3l-2-2-4-2h-11l-1-2-2-1-2-2v-3l-4-3-1-3,5,1,3,1h3l2-2,3-2,4-2,4-2,5,2,2-1,4-2,2-2,1-3v-4l-1-3v-7l3-2,3-1h7l2,2,2-2v-3l2-5,2-2,4-3,2-3,1-3v-4l-2-2v-3s-1.33-.33,2-2,4-2,4-2c1.33.67,5,2,5,2l3-1-1-4-1-2c2.67-.33,4-1,4-1,0,0,3.67,0,3-1s-1-1-1-1c0,0,1.67-.67,3-1s4,0,4,0c0,0,4.67-2,5,0s1,3,1,3c2-.67,4-1,4-1l5-2h5l1-4,2-3,1-5v-4h3l1-3-1-3-1-3-1-2-2-3-2-3v-3l-4-2-4,1,3-6,1-5-2-4-3-2h-3l-5,3-2-3,1-2,1-3,1-3h6l2-3,3-2,3-3,3-2h3s1.67,0,3,2,3,3,3,3l2-2v-4l3,1v4s2,1.33,3,1,2,0,2,0l2-3,1-3c.33-1.67,2-5,2-5l1-3s2.67-.33,4-1,3-1,3-1l4,3s1.67-.33,3,0,3,1,3,1c0,0,2-1.33,4-1s4,0,4,0c1.33.33,3,1.33,5,1s2-1.33,3,0,1.33,1.67,3,1,3-10,3-10l3-10,2-3v-3l3-2,3-4,3-5,4-7,3-4-1-3s-1.67-2-2-3-1-5-1-5c0,0-.33-2-1-4s-.33-3.33-1-5-2-5-2-5l-6-5-11-1h-11s-6.33.67-8,2-5,1.33-7,2-9,2-9,2l-10,2-8,4s-3.67,3.33-4,6,.33,4.67,0,7,.67,3,0,5-1,3-1,3c0,0-2-2-3-4s-4-5-4-5l-2-2-2,2v-6l2-3,2-2-5,1-4,2-3,2-6-2h-4v-4l-3-1,4-3,2-3v-3l4-2-2-4-2-3-2-5v-3l-4,3V7c0-1.33-1-2-1-2l-2-2-3-2-4-1s.33,1.67,0,3-2,2-2,2l-3,2s-2.33.33-4,0-3,0-3,0h-6l-3,2-3,2c-.67,1.33-3,1.67-3,4v4l-1,3c-2.33,0-5,1-5,1l-4-4-4,2-5,1-4-2-1-3h-6l-1,2s-1,4.33-1,6-1.33,2.33-1,4-.67,2.67,0,4l1.2,2.4.8,1.6-2,3-3,1-1-2h-4l-3,1h-7l-5,2-3-1-1-3-3,1-2-2-3-1s-2.33,2.33-4,2-5,0-5,0l-3-1-1-2-2-3-3-2-2-1-3-1-2-2-2-1-4,1h-11l-1-3-1-3v-4l-2-3-4,2h-5l-3-1c-1.67,0-5-1-5-1l-2,2v3s-.67,2,1,4,2,2,2,2c1,1.67,2,3,2,3l1,4s-.33,2.33,0,4-.33,2,0,3,0,3,0,3l-2,3,2,3,2,3,2,2,1,3-6,3-7,5s-1,0-2,2-2,3-2,3l-1-4v-3l3-8s-4,0-5,2-4,4-4,4h-5l-4-2-2-3-3-2c-.33,1.33-3,5-3,5l-1,4-3,1s-2.67,3-3,4-1,2-1,2l-4,2h-4l-4-1h-6s-2,2.67-2,4-2,6-2,6c-1.33,1.67-3,3-3,3l-3,2c-.67,1.67-4,3-5,4s-3,2-3,2l-3,1h-3l-4-2-3-1s-5,2.33-6,3-4,4-4,4l-3,3-3,1-7,2,1,3v4c0,2,0,3.67-1,5s-.67,2.67-3,3-7,0-7,0c0,0-1.67-1.33-4,0s-7,1-7,1l-8-1-6-2-3-2c0,1.33-2.67,3.67-4,5s-4,2-4,2l-4-1-3-3-4-2h-4l-4-3-2-3-4,1-4,1h-3c-1,1.67-3,3-4,4s-3,2-3,2c0,0-3.67,1-4,3s.33,2.67-1,4-3,4-3,4l-1,3,1,2-1,4c1.33.33,1,2,1,2,.67,1.33,2,2,2,2l2,2v4s1.33.67,2,2,1,2,1,2c0,0,3,2.33,4,3,3.12,2.08,1,7,1,7Z"/>
</svg>